<svg width="36" height="36" viewBox="0 0 36 36" fill="none" xmlns="http://www.w3.org/2000/svg">
<path d="M30.705 3H5.29497C5.00933 2.99603 4.72572 3.04837 4.46031 3.15402C4.19491 3.25968 3.95292 3.41658 3.74816 3.61576C3.5434 3.81495 3.37989 4.05252 3.26695 4.31491C3.15402 4.5773 3.09388 4.85936 3.08997 5.145V30.855C3.09388 31.1406 3.15402 31.4227 3.26695 31.6851C3.37989 31.9475 3.5434 32.185 3.74816 32.3842C3.95292 32.5834 4.19491 32.7403 4.46031 32.846C4.72572 32.9516 5.00933 33.004 5.29497 33H30.705C30.9906 33.004 31.2742 32.9516 31.5396 32.846C31.805 32.7403 32.047 32.5834 32.2518 32.3842C32.4565 32.185 32.62 31.9475 32.733 31.6851C32.8459 31.4227 32.9061 31.1406 32.91 30.855V5.145C32.9061 4.85936 32.8459 4.5773 32.733 4.31491C32.62 4.05252 32.4565 3.81495 32.2518 3.61576C32.047 3.41658 31.805 3.25968 31.5396 3.15402C31.2742 3.04837 30.9906 2.99603 30.705 3V3ZM12.135 28.11H7.63497V14.61H12.135V28.11ZM9.88497 12.72C9.26436 12.72 8.66917 12.4735 8.23034 12.0346C7.7915 11.5958 7.54497 11.0006 7.54497 10.38C7.54497 9.75939 7.7915 9.1642 8.23034 8.72537C8.66917 8.28653 9.26436 8.04 9.88497 8.04C10.2145 8.00262 10.5482 8.03528 10.8643 8.13582C11.1803 8.23636 11.4716 8.40253 11.719 8.62344C11.9663 8.84435 12.1643 9.11501 12.2998 9.41772C12.4353 9.72042 12.5053 10.0483 12.5053 10.38C12.5053 10.7117 12.4353 11.0396 12.2998 11.3423C12.1643 11.645 11.9663 11.9156 11.719 12.1366C11.4716 12.3575 11.1803 12.5236 10.8643 12.6242C10.5482 12.7247 10.2145 12.7574 9.88497 12.72V12.72ZM28.365 28.11H23.865V20.865C23.865 19.05 23.22 17.865 21.585 17.865C21.079 17.8687 20.5862 18.0274 20.1732 18.3198C19.7602 18.6121 19.4467 19.024 19.275 19.5C19.1576 19.8526 19.1067 20.2239 19.125 20.595V28.095H14.625C14.625 28.095 14.625 15.825 14.625 14.595H19.125V16.5C19.5338 15.7907 20.1283 15.2063 20.8446 14.8098C21.5609 14.4133 22.3718 14.2198 23.19 14.25C26.19 14.25 28.365 16.185 28.365 20.34V28.11Z" fill="#A3ABB2"/>
</svg>
